<?xml version="1.0" standalone="no"?><!DOCTYPE svg PUBLIC "-//W3C//DTD SVG 1.1//EN" "http://www.w3.org/Graphics/SVG/1.1/DTD/svg11.dtd"><svg t="1662103213812" class="icon" viewBox="0 0 1024 1024" version="1.1" xmlns="http://www.w3.org/2000/svg" p-id="3264" width="16" height="16" xmlns:xlink="http://www.w3.org/1999/xlink"><path d="M512 65c246.871 0 447 200.129 447 447S758.871 959 512 959 65 758.871 65 512 265.129 65 512 65z m0 64c-211.525 0-383 171.475-383 383s171.475 383 383 383 383-171.475 383-383-171.475-383-383-383z m0 318c26.51 0 48 21.49 48 48v224c0 26.51-21.49 48-48 48s-48-21.49-48-48V495c0-26.51 21.49-48 48-48z m0-192c39.765 0 72 32.235 72 72s-32.235 72-72 72-72-32.235-72-72 32.235-72 72-72z" p-id="3265" fill="#2c2c2c"></path></svg>